<svg xmlns="http://www.w3.org/2000/svg" version="1.1" xmlns:xlink="http://www.w3.org/1999/xlink" xmlns:svgjs="http://svgjs.dev/svgjs" width="1000" height="1000" viewBox="0 0 1000 1000"><rect width="1000" height="1000" fill="#ffffff"></rect><g transform="matrix(0.7,0,0,0.7,149.57575757575756,282.1265587044535)"><svg viewBox="0 0 396 247" data-background-color="#111111" preserveAspectRatio="xMidYMid meet" height="623" width="1000" xmlns="http://www.w3.org/2000/svg" xmlns:xlink="http://www.w3.org/1999/xlink"><g id="tight-bounds" transform="matrix(1,0,0,1,0.2400000000000091,-0.09999999999999432)"><svg viewBox="0 0 395.52 247.2" height="247.2" width="395.52"><g><svg></svg></g><g><svg viewBox="0 0 395.52 247.2" height="247.2" width="395.52"><g transform="matrix(1,0,0,1,39.55199999999999,49.7696)"><svg viewBox="0 0 316.416 147.6608" height="147.6608" width="316.416"><g><svg viewBox="0 0 316.416 147.6608" height="147.6608" width="316.416"><g><svg viewBox="0 0 316.416 147.6608" height="147.6608" width="316.416"><g id="textblocktransform"><svg viewBox="0 0 316.416 147.6608" height="147.6608" width="316.416" id="textblock"><g><svg viewBox="0 0 316.416 147.6608" height="147.6608" width="316.416"><g transform="matrix(1,0,0,1,0,0)"><svg width="316.416" viewBox="0 -50 93.75 43.75" height="147.6608" data-palette-color="#ffffff"><path d="M12.5-6.25L0-6.25 0-37.5 6.25-37.5 6.25-43.75 12.5-43.75 12.5-50 31.25-50 31.25-43.75 37.5-43.75 37.5-37.5 43.75-37.5 43.75-6.25 31.25-6.25 31.25-18.75 12.5-18.75 12.5-6.25ZM12.5-37.5L12.5-25 31.25-25 31.25-37.5 25-37.5 25-43.75 18.75-43.75 18.75-37.5 12.5-37.5ZM75-6.25L68.75-6.25 68.75-12.5 62.5-12.5 62.5-18.75 56.25-18.75 56.25-25 50-25 50-50 62.5-50 62.5-31.25 68.75-31.25 68.75-25 75-25 75-31.25 81.25-31.25 81.25-50 93.75-50 93.75-25 87.5-25 87.5-18.75 81.25-18.75 81.25-12.5 75-12.5 75-6.25Z" opacity="1" transform="matrix(1,0,0,1,0,0)" fill="#000000" class="undefined-text-0" data-fill-palette-color="primary" id="text-0"></path></svg></g></svg></g></svg></g></svg></g><g></g></svg></g></svg></g><g><path xmlns="http://www.w3.org/2000/svg" d="M0 247.2v-247.2h395.52v247.2zM382.204 233.884v-220.568h-368.888v220.568z" fill="#000000" fill-rule="nonzero" stroke="none" stroke-width="1" stroke-linecap="butt" stroke-linejoin="miter" stroke-miterlimit="10" stroke-dasharray="" stroke-dashoffset="0" font-family="none" font-weight="none" font-size="none" text-anchor="none" style="mix-blend-mode: normal" data-fill-palette-color="tertiary"></path></g></svg></g><defs></defs></svg><rect width="395.52" height="247.2" fill="none" stroke="none" visibility="hidden"></rect></g></svg></g></svg>